<?xml version="1.0" encoding="UTF-8" standalone="no"?>
<!DOCTYPE svg PUBLIC "-//W3C//DTD SVG 1.1//EN" "http://www.w3.org/Graphics/SVG/1.1/DTD/svg11.dtd">
<!-- Generated by graphviz version 2.40.1 (20161225.0304)
 -->
<!-- Title: %0 Pages: 1 -->
<svg width="324pt" height="666pt" viewBox="0.00 0.00 323.97 665.60" xmlns="http://www.w3.org/2000/svg" xmlns:xlink="http://www.w3.org/1999/xlink">
<g id="graph0" class="graph" transform="scale(1 1) rotate(0) translate(4 661.6)">
<title>%0</title>
<polygon fill="#ffffff" stroke="transparent" points="-4,4 -4,-661.6 319.9721,-661.6 319.9721,4 -4,4"/>
<!-- A -->
<g id="node1" class="node">
<title>A</title>
<ellipse fill="none" stroke="#000000" cx="88.9721" cy="-639.6" rx="27" ry="18"/>
<text text-anchor="middle" x="88.9721" y="-635.4" font-family="Times,serif" font-size="14.00" fill="#000000">A</text>
</g>
<!-- A&#45;&gt;A -->
<g id="edge1" class="edge">
<title>A-&gt;A</title>
<path fill="none" stroke="#000000" d="M113.5046,-647.7211C124.4799,-648.4945 133.9721,-645.7875 133.9721,-639.6 133.9721,-635.4428 129.6872,-632.8567 123.5465,-631.8417"/>
<polygon fill="#000000" stroke="#000000" points="123.6245,-628.3424 113.5046,-631.4789 123.3717,-635.3378 123.6245,-628.3424"/>
<text text-anchor="middle" x="137.4721" y="-635.4" font-family="Times,serif" font-size="14.00" fill="#000000">2</text>
</g>
<!-- B -->
<g id="node2" class="node">
<title>B</title>
<ellipse fill="none" stroke="#000000" cx="88.9721" cy="-550.8" rx="27" ry="18"/>
<text text-anchor="middle" x="88.9721" y="-546.6" font-family="Times,serif" font-size="14.00" fill="#000000">B</text>
</g>
<!-- A&#45;&gt;B -->
<g id="edge2" class="edge">
<title>A-&gt;B</title>
<path fill="none" stroke="#000000" d="M88.9721,-621.2006C88.9721,-609.0949 88.9721,-593.0076 88.9721,-579.2674"/>
<polygon fill="#000000" stroke="#000000" points="92.4722,-578.872 88.9721,-568.872 85.4722,-578.8721 92.4722,-578.872"/>
<text text-anchor="middle" x="92.4721" y="-591" font-family="Times,serif" font-size="14.00" fill="#000000">5</text>
</g>
<!-- C -->
<g id="node3" class="node">
<title>C</title>
<ellipse fill="none" stroke="#000000" cx="46.9721" cy="-462" rx="27" ry="18"/>
<text text-anchor="middle" x="46.9721" y="-457.8" font-family="Times,serif" font-size="14.00" fill="#000000">C</text>
</g>
<!-- A&#45;&gt;C -->
<g id="edge3" class="edge">
<title>A-&gt;C</title>
<path fill="none" stroke="#000000" d="M75.7425,-623.6481C65.3667,-610.0337 51.7475,-589.4348 45.9721,-568.8 38.7138,-542.8665 40.0129,-511.9843 42.496,-490.1152"/>
<polygon fill="#000000" stroke="#000000" points="45.9714,-490.5299 43.7777,-480.1646 39.0288,-489.6355 45.9714,-490.5299"/>
<text text-anchor="middle" x="49.4721" y="-546.6" font-family="Times,serif" font-size="14.00" fill="#000000">8</text>
</g>
<!-- B&#45;&gt;C -->
<g id="edge4" class="edge">
<title>B-&gt;C</title>
<path fill="none" stroke="#000000" d="M74.6585,-535.247C69.7319,-529.2213 64.5584,-522.0363 60.9721,-514.8 57.1821,-507.1526 54.3266,-498.3563 52.217,-490.1643"/>
<polygon fill="#000000" stroke="#000000" points="55.5867,-489.2007 49.9294,-480.2427 48.7657,-490.7734 55.5867,-489.2007"/>
<text text-anchor="middle" x="64.4721" y="-502.2" font-family="Times,serif" font-size="14.00" fill="#000000">6</text>
</g>
<!-- D -->
<g id="node4" class="node">
<title>D</title>
<ellipse fill="none" stroke="#000000" cx="42.9721" cy="-284.4" rx="27" ry="18"/>
<text text-anchor="middle" x="42.9721" y="-280.2" font-family="Times,serif" font-size="14.00" fill="#000000">D</text>
</g>
<!-- B&#45;&gt;D -->
<g id="edge5" class="edge">
<title>B-&gt;D</title>
<path fill="none" stroke="#000000" d="M68.2152,-539.0034C49.3009,-526.9344 22.598,-506.2537 10.9721,-480 -14.0958,-423.3914 11.8794,-349.7363 29.5318,-310.9582"/>
<polygon fill="#000000" stroke="#000000" points="32.9231,-311.9725 34.0224,-301.4349 26.5917,-308.987 32.9231,-311.9725"/>
<text text-anchor="middle" x="4.4721" y="-413.4" font-family="Times,serif" font-size="14.00" fill="#000000">8</text>
</g>
<!-- E -->
<g id="node5" class="node">
<title>E</title>
<ellipse fill="none" stroke="#000000" cx="109.9721" cy="-373.2" rx="27" ry="18"/>
<text text-anchor="middle" x="109.9721" y="-369" font-family="Times,serif" font-size="14.00" fill="#000000">E</text>
</g>
<!-- B&#45;&gt;E -->
<g id="edge6" class="edge">
<title>B-&gt;E</title>
<path fill="none" stroke="#000000" d="M91.1013,-532.7934C94.7646,-501.812 102.2856,-438.206 106.6454,-401.3346"/>
<polygon fill="#000000" stroke="#000000" points="110.1388,-401.5961 107.8373,-391.2543 103.1872,-400.7741 110.1388,-401.5961"/>
<text text-anchor="middle" x="104.4721" y="-457.8" font-family="Times,serif" font-size="14.00" fill="#000000">6</text>
</g>
<!-- C&#45;&gt;B -->
<g id="edge7" class="edge">
<title>C-&gt;B</title>
<path fill="none" stroke="#000000" d="M56.321,-479.0796C59.483,-485.0199 62.9708,-491.7584 65.9721,-498 69.9585,-506.2901 74.0501,-515.4408 77.6565,-523.7629"/>
<polygon fill="#000000" stroke="#000000" points="74.4792,-525.2345 81.6318,-533.0505 80.9145,-522.48 74.4792,-525.2345"/>
<text text-anchor="middle" x="76.4721" y="-502.2" font-family="Times,serif" font-size="14.00" fill="#000000">2</text>
</g>
<!-- C&#45;&gt;D -->
<g id="edge8" class="edge">
<title>C-&gt;D</title>
<path fill="none" stroke="#000000" d="M46.5666,-443.9934C45.8688,-413.012 44.4362,-349.406 43.6058,-312.5346"/>
<polygon fill="#000000" stroke="#000000" points="47.1031,-312.3729 43.3788,-302.4543 40.1049,-312.5306 47.1031,-312.3729"/>
<text text-anchor="middle" x="48.4721" y="-369" font-family="Times,serif" font-size="14.00" fill="#000000">1</text>
</g>
<!-- C&#45;&gt;E -->
<g id="edge9" class="edge">
<title>C-&gt;E</title>
<path fill="none" stroke="#000000" d="M58.5273,-445.7127C67.9702,-432.4027 81.4754,-413.3669 92.2791,-398.1388"/>
<polygon fill="#000000" stroke="#000000" points="95.3451,-399.8659 98.2769,-389.6848 89.636,-395.8155 95.3451,-399.8659"/>
<text text-anchor="middle" x="87.4721" y="-413.4" font-family="Times,serif" font-size="14.00" fill="#000000">2</text>
</g>
<!-- D&#45;&gt;E -->
<g id="edge10" class="edge">
<title>D-&gt;E</title>
<path fill="none" stroke="#000000" d="M55.1831,-300.584C65.3603,-314.0727 80.0137,-333.4939 91.6059,-348.8579"/>
<polygon fill="#000000" stroke="#000000" points="88.8663,-351.038 97.6833,-356.9127 94.4542,-346.8219 88.8663,-351.038"/>
<text text-anchor="middle" x="85.4721" y="-324.6" font-family="Times,serif" font-size="14.00" fill="#000000">3</text>
</g>
<!-- F -->
<g id="node6" class="node">
<title>F</title>
<ellipse fill="none" stroke="#000000" cx="79.9721" cy="-195.6" rx="27" ry="18"/>
<text text-anchor="middle" x="79.9721" y="-191.4" font-family="Times,serif" font-size="14.00" fill="#000000">F</text>
</g>
<!-- D&#45;&gt;F -->
<g id="edge11" class="edge">
<title>D-&gt;F</title>
<path fill="none" stroke="#000000" d="M41.9444,-266.1049C42.0185,-255.6065 43.2685,-242.4065 47.9721,-231.6 50.0872,-226.7408 53.1161,-222.0812 56.4769,-217.8202"/>
<polygon fill="#000000" stroke="#000000" points="59.2268,-219.993 63.1956,-210.1696 53.9671,-215.3739 59.2268,-219.993"/>
<text text-anchor="middle" x="51.4721" y="-235.8" font-family="Times,serif" font-size="14.00" fill="#000000">1</text>
</g>
<!-- E&#45;&gt;A -->
<g id="edge12" class="edge">
<title>E-&gt;A</title>
<path fill="none" stroke="#000000" d="M114.964,-391.0235C123.9012,-425.7563 140.33,-504.7122 124.9721,-568.8 121.1451,-584.7702 113.0877,-601.2039 105.5641,-614.2137"/>
<polygon fill="#000000" stroke="#000000" points="102.4166,-612.6555 100.2483,-623.0261 108.4106,-616.2711 102.4166,-612.6555"/>
<text text-anchor="middle" x="134.4721" y="-502.2" font-family="Times,serif" font-size="14.00" fill="#000000">5</text>
</g>
<!-- E&#45;&gt;D -->
<g id="edge13" class="edge">
<title>E-&gt;D</title>
<path fill="none" stroke="#000000" d="M88.5349,-361.535C78.9542,-355.3909 68.2145,-347.0737 60.9721,-337.2 55.5377,-329.7911 51.659,-320.6217 48.9294,-312.0144"/>
<polygon fill="#000000" stroke="#000000" points="52.2811,-311.0033 46.2285,-302.3075 45.5373,-312.8797 52.2811,-311.0033"/>
<text text-anchor="middle" x="64.4721" y="-324.6" font-family="Times,serif" font-size="14.00" fill="#000000">1</text>
</g>
<!-- G -->
<g id="node7" class="node">
<title>G</title>
<ellipse fill="none" stroke="#000000" cx="131.9721" cy="-106.8" rx="27" ry="18"/>
<text text-anchor="middle" x="131.9721" y="-102.6" font-family="Times,serif" font-size="14.00" fill="#000000">G</text>
</g>
<!-- E&#45;&gt;G -->
<g id="edge14" class="edge">
<title>E-&gt;G</title>
<path fill="none" stroke="#000000" d="M113.3024,-355.303C114.2814,-349.5401 115.2754,-343.1152 115.9721,-337.2 124.5115,-264.6976 128.9974,-178.7828 130.8762,-135.2071"/>
<polygon fill="#000000" stroke="#000000" points="134.379,-135.2118 131.2986,-125.0747 127.385,-134.9202 134.379,-135.2118"/>
<text text-anchor="middle" x="128.4721" y="-235.8" font-family="Times,serif" font-size="14.00" fill="#000000">5</text>
</g>
<!-- I -->
<g id="node9" class="node">
<title>I</title>
<ellipse fill="none" stroke="#000000" cx="281.9721" cy="-284.4" rx="27" ry="18"/>
<text text-anchor="middle" x="281.9721" y="-280.2" font-family="Times,serif" font-size="14.00" fill="#000000">I</text>
</g>
<!-- E&#45;&gt;I -->
<g id="edge19" class="edge">
<title>E-&gt;I</title>
<path fill="none" stroke="#000000" d="M131.4083,-362.133C161.6179,-346.5364 216.8755,-318.008 251.3899,-300.1889"/>
<polygon fill="#000000" stroke="#000000" points="253.2566,-303.1642 260.5367,-295.4667 250.0453,-296.9442 253.2566,-303.1642"/>
<text text-anchor="middle" x="214.4721" y="-324.6" font-family="Times,serif" font-size="14.00" fill="#000000">3</text>
</g>
<!-- F&#45;&gt;D -->
<g id="edge15" class="edge">
<title>F-&gt;D</title>
<path fill="none" stroke="#000000" d="M72.6773,-213.1076C67.4107,-225.7475 60.2002,-243.0527 54.2021,-257.448"/>
<polygon fill="#000000" stroke="#000000" points="50.8976,-256.279 50.2821,-266.856 57.3591,-258.9714 50.8976,-256.279"/>
<text text-anchor="middle" x="67.4721" y="-235.8" font-family="Times,serif" font-size="14.00" fill="#000000">4</text>
</g>
<!-- F&#45;&gt;E -->
<g id="edge16" class="edge">
<title>F-&gt;E</title>
<path fill="none" stroke="#000000" d="M83.0218,-213.6543C88.2608,-244.6691 99.0056,-308.2781 105.2292,-345.122"/>
<polygon fill="#000000" stroke="#000000" points="101.8137,-345.9161 106.9305,-355.1934 108.7159,-344.7501 101.8137,-345.9161"/>
<text text-anchor="middle" x="100.4721" y="-280.2" font-family="Times,serif" font-size="14.00" fill="#000000">1</text>
</g>
<!-- F&#45;&gt;G -->
<g id="edge17" class="edge">
<title>F-&gt;G</title>
<path fill="none" stroke="#000000" d="M89.9983,-178.4785C97.6725,-165.3732 108.3782,-147.0911 117.0567,-132.2709"/>
<polygon fill="#000000" stroke="#000000" points="120.1201,-133.9658 122.1531,-123.5678 114.0796,-130.4285 120.1201,-133.9658"/>
<text text-anchor="middle" x="113.4721" y="-147" font-family="Times,serif" font-size="14.00" fill="#000000">3</text>
</g>
<!-- H -->
<g id="node8" class="node">
<title>H</title>
<ellipse fill="none" stroke="#000000" cx="172.9721" cy="-18" rx="27" ry="18"/>
<text text-anchor="middle" x="172.9721" y="-13.8" font-family="Times,serif" font-size="14.00" fill="#000000">H</text>
</g>
<!-- F&#45;&gt;H -->
<g id="edge18" class="edge">
<title>F-&gt;H</title>
<path fill="none" stroke="#000000" d="M77.4558,-177.4439C75.2505,-155.2207 74.3561,-117.063 88.9721,-88.8 100.922,-65.6925 123.9841,-47.1098 142.9247,-34.7899"/>
<polygon fill="#000000" stroke="#000000" points="144.9159,-37.6731 151.553,-29.4148 141.2146,-31.7317 144.9159,-37.6731"/>
<text text-anchor="middle" x="92.4721" y="-102.6" font-family="Times,serif" font-size="14.00" fill="#000000">6</text>
</g>
<!-- G&#45;&gt;H -->
<g id="edge20" class="edge">
<title>G-&gt;H</title>
<path fill="none" stroke="#000000" d="M140.0724,-89.256C145.9505,-76.525 154.0072,-59.0753 160.6765,-44.6306"/>
<polygon fill="#000000" stroke="#000000" points="164.0139,-45.7516 165.0282,-35.2054 157.6586,-42.8172 164.0139,-45.7516"/>
<text text-anchor="middle" x="159.4721" y="-58.2" font-family="Times,serif" font-size="14.00" fill="#000000">2</text>
</g>
<!-- H&#45;&gt;B -->
<g id="edge21" class="edge">
<title>H-&gt;B</title>
<path fill="none" stroke="#000000" d="M177.4789,-35.8975C181.5715,-53.7394 186.9721,-81.9847 186.9721,-106.8 186.9721,-462 186.9721,-462 186.9721,-462 186.9721,-497.8924 150.4278,-523.0626 121.9712,-537.2214"/>
<polygon fill="#000000" stroke="#000000" points="120.2439,-534.1664 112.6952,-541.6006 123.2323,-540.4964 120.2439,-534.1664"/>
<text text-anchor="middle" x="190.4721" y="-280.2" font-family="Times,serif" font-size="14.00" fill="#000000">6</text>
</g>
<!-- H&#45;&gt;B -->
<g id="edge22" class="edge">
<title>H-&gt;B</title>
<path fill="none" stroke="#000000" d="M189.7657,-32.5221C206.5793,-48.7624 229.9721,-76.7562 229.9721,-106.8 229.9721,-462 229.9721,-462 229.9721,-462 229.9721,-511.4425 167.128,-534.4468 125.3504,-544.2771"/>
<polygon fill="#000000" stroke="#000000" points="124.5066,-540.879 115.4932,-546.4474 126.0119,-547.7152 124.5066,-540.879"/>
<text text-anchor="middle" x="233.4721" y="-280.2" font-family="Times,serif" font-size="14.00" fill="#000000">7</text>
</g>
<!-- J -->
<g id="node10" class="node">
<title>J</title>
<ellipse fill="none" stroke="#000000" cx="288.9721" cy="-195.6" rx="27" ry="18"/>
<text text-anchor="middle" x="288.9721" y="-191.4" font-family="Times,serif" font-size="14.00" fill="#000000">J</text>
</g>
<!-- I&#45;&gt;J -->
<g id="edge23" class="edge">
<title>I-&gt;J</title>
<path fill="none" stroke="#000000" d="M276.8353,-266.7248C274.5398,-256.4331 272.7898,-243.2331 274.9721,-231.6 275.5471,-228.5352 276.3751,-225.396 277.3452,-222.3106"/>
<polygon fill="#000000" stroke="#000000" points="280.6772,-223.3887 280.7929,-212.7945 274.0958,-221.0043 280.6772,-223.3887"/>
<text text-anchor="middle" x="278.4721" y="-235.8" font-family="Times,serif" font-size="14.00" fill="#000000">4</text>
</g>
<!-- J&#45;&gt;I -->
<g id="edge24" class="edge">
<title>J-&gt;I</title>
<path fill="none" stroke="#000000" d="M287.5475,-213.672C286.5896,-225.8243 285.3069,-242.0958 284.2134,-255.968"/>
<polygon fill="#000000" stroke="#000000" points="280.7193,-255.7564 283.4225,-266.0006 287.6977,-256.3066 280.7193,-255.7564"/>
<text text-anchor="middle" x="289.4721" y="-235.8" font-family="Times,serif" font-size="14.00" fill="#000000">5</text>
</g>
</g>
</svg>