<?xml version="1.0" encoding="UTF-8" standalone="no"?>
<!DOCTYPE svg PUBLIC "-//W3C//DTD SVG 1.1//EN" "http://www.w3.org/Graphics/SVG/1.1/DTD/svg11.dtd">
<!-- Generated by graphviz version 2.40.1 (20161225.0304)
 -->
<!-- Title: %0 Pages: 1 -->
<svg width="389pt" height="666pt" viewBox="0.00 0.00 389.00 665.60" xmlns="http://www.w3.org/2000/svg" xmlns:xlink="http://www.w3.org/1999/xlink">
<g id="graph0" class="graph" transform="scale(1 1) rotate(0) translate(4 661.6)">
<title>%0</title>
<polygon fill="#ffffff" stroke="transparent" points="-4,4 -4,-661.6 385,-661.6 385,4 -4,4"/>
<!-- A -->
<g id="node1" class="node">
<title>A</title>
<ellipse fill="none" stroke="#000000" cx="91" cy="-639.6" rx="27" ry="18"/>
<text text-anchor="middle" x="91" y="-635.4" font-family="Times,serif" font-size="14.00" fill="#000000">A</text>
</g>
<!-- A&#45;&gt;A -->
<g id="edge1" class="edge">
<title>A-&gt;A</title>
<path fill="none" stroke="#000000" d="M115.5325,-647.7211C126.5078,-648.4945 136,-645.7875 136,-639.6 136,-635.4428 131.7151,-632.8567 125.5743,-631.8417"/>
<polygon fill="#000000" stroke="#000000" points="125.6524,-628.3424 115.5325,-631.4789 125.3995,-635.3378 125.6524,-628.3424"/>
<text text-anchor="middle" x="139.5" y="-635.4" font-family="Times,serif" font-size="14.00" fill="#000000">2</text>
</g>
<!-- B -->
<g id="node2" class="node">
<title>B</title>
<ellipse fill="none" stroke="#000000" cx="214" cy="-550.8" rx="27" ry="18"/>
<text text-anchor="middle" x="214" y="-546.6" font-family="Times,serif" font-size="14.00" fill="#000000">B</text>
</g>
<!-- A&#45;&gt;B -->
<g id="edge2" class="edge">
<title>A-&gt;B</title>
<path fill="none" stroke="#000000" d="M109.4143,-626.3057C130.0662,-611.3961 163.7443,-587.0822 187.2874,-570.0852"/>
<polygon fill="#000000" stroke="#000000" points="189.4006,-572.8764 195.4598,-564.1851 185.3032,-567.2009 189.4006,-572.8764"/>
<text text-anchor="middle" x="166.5" y="-591" font-family="Times,serif" font-size="14.00" fill="#000000">5</text>
</g>
<!-- C -->
<g id="node3" class="node">
<title>C</title>
<ellipse fill="none" stroke="#000000" cx="159" cy="-462" rx="27" ry="18"/>
<text text-anchor="middle" x="159" y="-457.8" font-family="Times,serif" font-size="14.00" fill="#000000">C</text>
</g>
<!-- A&#45;&gt;C -->
<g id="edge3" class="edge">
<title>A-&gt;C</title>
<path fill="none" stroke="#000000" d="M97.7687,-621.9217C109.6828,-590.8049 134.4712,-526.0635 148.5816,-489.2105"/>
<polygon fill="#000000" stroke="#000000" points="151.9515,-490.1972 152.2587,-479.6068 145.4143,-487.6941 151.9515,-490.1972"/>
<text text-anchor="middle" x="134.5" y="-546.6" font-family="Times,serif" font-size="14.00" fill="#000000">8</text>
</g>
<!-- B&#45;&gt;C -->
<g id="edge4" class="edge">
<title>B-&gt;C</title>
<path fill="none" stroke="#000000" d="M191.5444,-540.6931C181.0225,-534.7301 169.4155,-526.1129 163,-514.8 158.8549,-507.4906 157.1599,-498.6695 156.6938,-490.3482"/>
<polygon fill="#000000" stroke="#000000" points="160.1936,-490.2176 156.6688,-480.2264 153.1936,-490.235 160.1936,-490.2176"/>
<text text-anchor="middle" x="166.5" y="-502.2" font-family="Times,serif" font-size="14.00" fill="#000000">6</text>
</g>
<!-- D -->
<g id="node4" class="node">
<title>D</title>
<ellipse fill="none" stroke="#000000" cx="186" cy="-284.4" rx="27" ry="18"/>
<text text-anchor="middle" x="186" y="-280.2" font-family="Times,serif" font-size="14.00" fill="#000000">D</text>
</g>
<!-- B&#45;&gt;D -->
<g id="edge5" class="edge">
<title>B-&gt;D</title>
<path fill="none" stroke="#000000" d="M221.7352,-533.1885C223.8843,-527.4409 225.9231,-520.9528 227,-514.8 228.2873,-507.4451 227.7051,-505.4333 227,-498 220.6005,-430.5371 203.0245,-352.6895 193.0869,-312.171"/>
<polygon fill="#000000" stroke="#000000" points="196.4269,-311.0982 190.6193,-302.2369 189.6334,-312.7858 196.4269,-311.0982"/>
<text text-anchor="middle" x="219.5" y="-413.4" font-family="Times,serif" font-size="14.00" fill="#000000">8</text>
</g>
<!-- E -->
<g id="node5" class="node">
<title>E</title>
<ellipse fill="none" stroke="#000000" cx="107" cy="-373.2" rx="27" ry="18"/>
<text text-anchor="middle" x="107" y="-369" font-family="Times,serif" font-size="14.00" fill="#000000">E</text>
</g>
<!-- B&#45;&gt;E -->
<g id="edge6" class="edge">
<title>B-&gt;E</title>
<path fill="none" stroke="#000000" d="M190.4892,-541.7544C166.5436,-531.0856 130.8829,-510.8061 116,-480 104.105,-455.3786 102.9007,-423.832 104.0329,-401.4239"/>
<polygon fill="#000000" stroke="#000000" points="107.5397,-401.4462 104.7399,-391.228 100.5565,-400.9619 107.5397,-401.4462"/>
<text text-anchor="middle" x="119.5" y="-457.8" font-family="Times,serif" font-size="14.00" fill="#000000">6</text>
</g>
<!-- B&#45;&gt;E -->
<g id="edge27" class="edge">
<title>B-&gt;E</title>
<path fill="none" stroke="#ff0000" d="M214.5344,-532.4608C214.3747,-510.0531 211.41,-471.7095 195,-444 181.2231,-420.7366 156.7584,-401.994 137.1156,-389.651"/>
<polygon fill="#ff0000" stroke="#ff0000" points="138.8546,-386.6125 128.4855,-384.4369 135.2347,-392.6039 138.8546,-386.6125"/>
</g>
<!-- C&#45;&gt;B -->
<g id="edge7" class="edge">
<title>C-&gt;B</title>
<path fill="none" stroke="#000000" d="M169.4857,-478.9296C177.6152,-492.055 189.0124,-510.4563 198.2391,-525.3533"/>
<polygon fill="#000000" stroke="#000000" points="195.4138,-527.4389 203.6549,-534.0974 201.3649,-523.753 195.4138,-527.4389"/>
<text text-anchor="middle" x="194.5" y="-502.2" font-family="Times,serif" font-size="14.00" fill="#000000">2</text>
</g>
<!-- C&#45;&gt;D -->
<g id="edge8" class="edge">
<title>C-&gt;D</title>
<path fill="none" stroke="#000000" d="M161.7375,-443.9934C166.4475,-413.012 176.1173,-349.406 181.7228,-312.5346"/>
<polygon fill="#000000" stroke="#000000" points="185.2124,-312.8667 183.2553,-302.4543 178.2919,-311.8146 185.2124,-312.8667"/>
<text text-anchor="middle" x="178.5" y="-369" font-family="Times,serif" font-size="14.00" fill="#000000">1</text>
</g>
<!-- C&#45;&gt;E -->
<g id="edge9" class="edge">
<title>C-&gt;E</title>
<path fill="none" stroke="#000000" d="M148.9739,-444.8785C141.2996,-431.7732 130.5939,-413.4911 121.9154,-398.6709"/>
<polygon fill="#000000" stroke="#000000" points="124.8925,-396.8285 116.819,-389.9678 118.852,-400.3658 124.8925,-396.8285"/>
<text text-anchor="middle" x="140.5" y="-413.4" font-family="Times,serif" font-size="14.00" fill="#000000">2</text>
</g>
<!-- D&#45;&gt;E -->
<g id="edge10" class="edge">
<title>D-&gt;E</title>
<path fill="none" stroke="#000000" d="M175.265,-301.31C168.106,-312.0527 158.1713,-325.994 148,-337.2 143.2093,-342.4781 137.6924,-347.7638 132.2902,-352.5966"/>
<polygon fill="#000000" stroke="#000000" points="129.8205,-350.1054 124.5554,-359.2994 134.4048,-355.3955 129.8205,-350.1054"/>
<text text-anchor="middle" x="164.5" y="-324.6" font-family="Times,serif" font-size="14.00" fill="#000000">3</text>
</g>
<!-- F -->
<g id="node6" class="node">
<title>F</title>
<ellipse fill="none" stroke="#000000" cx="192" cy="-195.6" rx="27" ry="18"/>
<text text-anchor="middle" x="192" y="-191.4" font-family="Times,serif" font-size="14.00" fill="#000000">F</text>
</g>
<!-- D&#45;&gt;F -->
<g id="edge11" class="edge">
<title>D-&gt;F</title>
<path fill="none" stroke="#000000" d="M177.9266,-266.783C174.2355,-256.5107 171.2355,-243.3107 174,-231.6 174.7706,-228.3356 175.8851,-225.0298 177.1873,-221.8127"/>
<polygon fill="#000000" stroke="#000000" points="180.4484,-223.1009 181.5014,-212.5585 174.1039,-220.1432 180.4484,-223.1009"/>
<text text-anchor="middle" x="177.5" y="-235.8" font-family="Times,serif" font-size="14.00" fill="#000000">1</text>
</g>
<!-- E&#45;&gt;A -->
<g id="edge12" class="edge">
<title>E-&gt;A</title>
<path fill="none" stroke="#000000" d="M102.9672,-391.061C101.8171,-396.8219 100.69,-403.2549 100,-409.2 91.5974,-481.5977 90.5944,-567.5567 90.7159,-611.1667"/>
<polygon fill="#000000" stroke="#000000" points="87.2166,-611.3254 90.7672,-621.3075 94.2165,-611.2899 87.2166,-611.3254"/>
<text text-anchor="middle" x="97.5" y="-502.2" font-family="Times,serif" font-size="14.00" fill="#000000">5</text>
</g>
<!-- E&#45;&gt;D -->
<g id="edge13" class="edge">
<title>E-&gt;D</title>
<path fill="none" stroke="#000000" d="M116.9345,-356.1616C123.6228,-345.3677 133.0184,-331.4177 143,-320.4 148.1233,-314.7449 154.1399,-309.1782 160.0227,-304.1758"/>
<polygon fill="#000000" stroke="#000000" points="162.3491,-306.7945 167.8652,-297.7489 157.9121,-301.3803 162.3491,-306.7945"/>
<text text-anchor="middle" x="146.5" y="-324.6" font-family="Times,serif" font-size="14.00" fill="#000000">1</text>
</g>
<!-- G -->
<g id="node7" class="node">
<title>G</title>
<ellipse fill="none" stroke="#000000" cx="192" cy="-106.8" rx="27" ry="18"/>
<text text-anchor="middle" x="192" y="-102.6" font-family="Times,serif" font-size="14.00" fill="#000000">G</text>
</g>
<!-- E&#45;&gt;G -->
<g id="edge14" class="edge">
<title>E-&gt;G</title>
<path fill="none" stroke="#000000" d="M108.1593,-355.0468C108.9518,-344.8296 110.1913,-331.8598 112,-320.4 122.3537,-254.8009 129.6413,-238.5562 156,-177.6 162.5181,-162.5266 170.7627,-146.1552 177.7169,-132.9557"/>
<polygon fill="#000000" stroke="#000000" points="180.8921,-134.4397 182.5094,-123.969 174.7155,-131.1457 180.8921,-134.4397"/>
<text text-anchor="middle" x="136.5" y="-235.8" font-family="Times,serif" font-size="14.00" fill="#000000">5</text>
</g>
<!-- I -->
<g id="node9" class="node">
<title>I</title>
<ellipse fill="none" stroke="#000000" cx="27" cy="-284.4" rx="27" ry="18"/>
<text text-anchor="middle" x="27" y="-280.2" font-family="Times,serif" font-size="14.00" fill="#000000">I</text>
</g>
<!-- E&#45;&gt;I -->
<g id="edge19" class="edge">
<title>E-&gt;I</title>
<path fill="none" stroke="#000000" d="M81.301,-367.1792C65.1036,-362.0004 45.2011,-352.8163 34,-337.2 28.9423,-330.1487 26.652,-321.1719 25.7799,-312.6288"/>
<polygon fill="#000000" stroke="#000000" points="29.2739,-312.4147 25.3287,-302.5818 22.2809,-312.7288 29.2739,-312.4147"/>
<text text-anchor="middle" x="37.5" y="-324.6" font-family="Times,serif" font-size="14.00" fill="#000000">3</text>
</g>
<!-- E&#45;&gt;I -->
<g id="edge28" class="edge">
<title>E-&gt;I</title>
<path fill="none" stroke="#ff0000" d="M90.6115,-358.6169C83.7228,-352.25 75.7566,-344.5673 69,-337.2 60.7565,-328.2115 52.2706,-317.7999 45.1032,-308.6099"/>
<polygon fill="#ff0000" stroke="#ff0000" points="47.8065,-306.3836 38.9364,-300.5894 42.2572,-310.6504 47.8065,-306.3836"/>
</g>
<!-- F&#45;&gt;D -->
<g id="edge15" class="edge">
<title>F-&gt;D</title>
<path fill="none" stroke="#000000" d="M190.7789,-213.672C189.9578,-225.8243 188.8584,-242.0958 187.9211,-255.968"/>
<polygon fill="#000000" stroke="#000000" points="184.4254,-255.7874 187.2432,-266.0006 191.4095,-256.2593 184.4254,-255.7874"/>
<text text-anchor="middle" x="192.5" y="-235.8" font-family="Times,serif" font-size="14.00" fill="#000000">4</text>
</g>
<!-- F&#45;&gt;E -->
<g id="edge16" class="edge">
<title>F-&gt;E</title>
<path fill="none" stroke="#000000" d="M178.9285,-211.6563C168.1537,-225.4978 153.0599,-246.3609 143,-266.4 130.1166,-292.0634 120.1735,-323.4014 114.0336,-345.4739"/>
<polygon fill="#000000" stroke="#000000" points="110.6341,-344.6375 111.406,-355.2042 117.392,-346.4625 110.6341,-344.6375"/>
<text text-anchor="middle" x="146.5" y="-280.2" font-family="Times,serif" font-size="14.00" fill="#000000">1</text>
</g>
<!-- F&#45;&gt;G -->
<g id="edge17" class="edge">
<title>F-&gt;G</title>
<path fill="none" stroke="#000000" d="M192,-177.2006C192,-165.0949 192,-149.0076 192,-135.2674"/>
<polygon fill="#000000" stroke="#000000" points="195.5001,-134.872 192,-124.872 188.5001,-134.8721 195.5001,-134.872"/>
<text text-anchor="middle" x="195.5" y="-147" font-family="Times,serif" font-size="14.00" fill="#000000">3</text>
</g>
<!-- H -->
<g id="node8" class="node">
<title>H</title>
<ellipse fill="none" stroke="#000000" cx="272" cy="-18" rx="27" ry="18"/>
<text text-anchor="middle" x="272" y="-13.8" font-family="Times,serif" font-size="14.00" fill="#000000">H</text>
</g>
<!-- F&#45;&gt;H -->
<g id="edge18" class="edge">
<title>F-&gt;H</title>
<path fill="none" stroke="#000000" d="M201.1153,-178.6187C208.6354,-164.3917 219.4237,-143.4707 228,-124.8 240.2846,-98.0563 252.9446,-66.8766 261.5123,-45.136"/>
<polygon fill="#000000" stroke="#000000" points="264.8701,-46.1599 265.2573,-35.5721 258.352,-43.6075 264.8701,-46.1599"/>
<text text-anchor="middle" x="246.5" y="-102.6" font-family="Times,serif" font-size="14.00" fill="#000000">6</text>
</g>
<!-- G&#45;&gt;H -->
<g id="edge20" class="edge">
<title>G-&gt;H</title>
<path fill="none" stroke="#000000" d="M192.8207,-88.5684C194.1462,-77.5778 197.3639,-63.8476 205,-54 213.3641,-43.2136 225.8972,-35.2685 237.8689,-29.6288"/>
<polygon fill="#000000" stroke="#000000" points="239.4559,-32.7563 247.2593,-25.5898 236.69,-26.3258 239.4559,-32.7563"/>
<text text-anchor="middle" x="208.5" y="-58.2" font-family="Times,serif" font-size="14.00" fill="#000000">2</text>
</g>
<!-- G&#45;&gt;H -->
<g id="edge25" class="edge">
<title>G-&gt;H</title>
<path fill="none" stroke="#ff0000" d="M205.9349,-91.3322C218.3626,-77.5375 236.7358,-57.1432 250.9536,-41.3615"/>
<polygon fill="#ff0000" stroke="#ff0000" points="253.8633,-43.3608 257.9563,-33.5885 248.6626,-38.6754 253.8633,-43.3608"/>
</g>
<!-- H&#45;&gt;B -->
<g id="edge21" class="edge">
<title>H-&gt;B</title>
<path fill="none" stroke="#000000" d="M295.9145,-26.5964C326.0626,-39.1519 374,-65.5945 374,-106.8 374,-462 374,-462 374,-462 374,-517.9695 298.2239,-538.9599 250.9678,-546.6082"/>
<polygon fill="#000000" stroke="#000000" points="250.1564,-543.1903 240.7804,-548.1239 251.1866,-550.1141 250.1564,-543.1903"/>
<text text-anchor="middle" x="377.5" y="-280.2" font-family="Times,serif" font-size="14.00" fill="#000000">6</text>
</g>
<!-- H&#45;&gt;B -->
<g id="edge22" class="edge">
<title>H-&gt;B</title>
<path fill="none" stroke="#000000" d="M277.7944,-35.8132C283.0564,-53.5911 290,-81.789 290,-106.8 290,-462 290,-462 290,-462 290,-492.2748 264.1867,-517.4225 242.6477,-533.1363"/>
<polygon fill="#000000" stroke="#000000" points="240.5852,-530.3074 234.3666,-538.8853 244.5771,-536.0576 240.5852,-530.3074"/>
<text text-anchor="middle" x="293.5" y="-280.2" font-family="Times,serif" font-size="14.00" fill="#000000">7</text>
</g>
<!-- H&#45;&gt;B -->
<g id="edge26" class="edge">
<title>H-&gt;B</title>
<path fill="none" stroke="#ff0000" d="M288.499,-32.5813C305.0176,-48.8723 328,-76.909 328,-106.8 328,-462 328,-462 328,-462 328,-502.7579 282.0873,-527.5478 248.5361,-540.222"/>
<polygon fill="#ff0000" stroke="#ff0000" points="247.2559,-536.9626 239.0178,-543.6248 249.6124,-543.5541 247.2559,-536.9626"/>
</g>
<!-- J -->
<g id="node10" class="node">
<title>J</title>
<ellipse fill="none" stroke="#000000" cx="27" cy="-195.6" rx="27" ry="18"/>
<text text-anchor="middle" x="27" y="-191.4" font-family="Times,serif" font-size="14.00" fill="#000000">J</text>
</g>
<!-- I&#45;&gt;J -->
<g id="edge23" class="edge">
<title>I-&gt;J</title>
<path fill="none" stroke="#000000" d="M27,-266.0006C27,-253.8949 27,-237.8076 27,-224.0674"/>
<polygon fill="#000000" stroke="#000000" points="30.5001,-223.672 27,-213.672 23.5001,-223.6721 30.5001,-223.672"/>
<text text-anchor="middle" x="30.5" y="-235.8" font-family="Times,serif" font-size="14.00" fill="#000000">4</text>
</g>
<!-- I&#45;&gt;J -->
<g id="edge29" class="edge">
<title>I-&gt;J</title>
<path fill="none" stroke="#ff0000" d="M31.7673,-266.5838C33.0903,-260.8252 34.3433,-254.3824 35,-248.4 35.8147,-240.9779 35.8147,-239.0221 35,-231.6 34.7024,-228.8892 34.2824,-226.0839 33.789,-223.2906"/>
<polygon fill="#ff0000" stroke="#ff0000" points="37.202,-222.511 31.7673,-213.4162 30.3443,-223.9151 37.202,-222.511"/>
</g>
<!-- J&#45;&gt;I -->
<g id="edge24" class="edge">
<title>J-&gt;I</title>
<path fill="none" stroke="#000000" d="M20.4504,-213.3041C18.6317,-219.0566 16.9075,-225.5243 16,-231.6 14.8969,-238.9847 14.8969,-241.0153 16,-248.4 16.4112,-251.1531 16.9901,-253.9866 17.6695,-256.7976"/>
<polygon fill="#000000" stroke="#000000" points="14.376,-258.0153 20.4504,-266.6959 21.1151,-256.122 14.376,-258.0153"/>
<text text-anchor="middle" x="19.5" y="-235.8" font-family="Times,serif" font-size="14.00" fill="#000000">5</text>
</g>
</g>
</svg>